<svg xmlns="http://www.w3.org/2000/svg" viewBox="0 0 665.19 226.94"><defs><style>.cls-1{opacity:0.51;}.cls-2{fill:#016a52;}</style></defs><title>Logo Acentuado Plano Minimizado - Negro</title><g id="Capa_2" data-name="Capa 2"><g id="Capa_2-2" data-name="Capa 2"><path d="M351.81,108.69c-17-16.29-39.95-24.17-62.85-27.9a97.14,97.14,0,0,0-10.75-1.22c-1-.06-4.24-.63-5.19,0-1.17.74-1.08,1.64-.83,3.57.41,3.16-1,1.52,1.9,2.52,2.55.89,6.54.28,9.34.61,15.65,1.81,31.76,9,44,19.09,26.25,21.75,34.47,61.84,14.09,90-13.77,19-37.33,27.66-60.06,21-9.51-2.77-18-7.24-24.56-14.81-3.79-4.38-7.22-8.43-7.76-14.18a44,44,0,0,1,1.11-16c1-4.32,3.51-10.29,1.53-14.58-4.12-9-13.82-6.69-17.24,1-2.16,4.85-1.18,11.33-7.41,12.59-7.9,1.59-17.58-2.16-18.39-11.06-.78-8.58,1.4-17.37.64-25.94-.83-9.53-8.57,4.68-10,7.49-3.79,7.67-5.12,20.32-12.95,25-8.61,5.16-19.44,3.07-22.16-7.34-2.94-11.23,0-22.51,6-32.09,5.66-9,14.19-16.53,25.52-11.35,2.6,1.19,4.77,3.61,7.93,2,4-2.06,3.39-6.32.52-8.79-4.57-3.92-12.32-4.14-17.87-3.27-8.46,1.33-17.21,7.72-23.07,13.72-6.66,6.83-12.93,14.84-16.34,23.83-2.71,7.12-2.16,14.58-2.14,22h0v0c-4,3.75-7,7.06-12.18,9-8.16,3.06-13.74-.26-16.76-8.4-3.24-8.75-4.55-18-5.94-27.19q-1.38-9.11-2.75-18.23c-.5-3.24-.58-5.92-2.37-8.7-9.6-14.87-17.94,2.22-21.74,11.1-3.5,8.18-6.59,16.56-9.87,24.83q-2.91,7.32-5.81,14.64c-1,2.49-2.12,4.83-3.28,1.41-1.36-4-1.15-9.31-1.68-13.48-.85-6.7-1.72-13.39-2.66-20.07-1-7-2.12-30.47-15.56-23.26-4.08,2.19-5.68,6.92-7.27,11-2.23,5.63-4.36,11.3-6.49,17q-5,13.27-9.92,26.58c.18-12.79.32-25.57.33-38.36,0-4.75,1.06-11.19-.3-15.82-2.44-8.3-18.24-2.28-20.18,3.82-1,3.31,0,8.21.12,11.59q.54,11.24,1.62,22.45c1,10,1.68,20.38,5.54,29.79,1.3,3.18,3.72,10.4,7.85,10.89s7.48-3.92,8.89-7.25c6.4-15.07,11.05-31.08,16.41-46.54Q43.45,146,46,160.7c1.22,7,2.36,13.59,6,19.93,6,10.34,14.79,4.88,18.44-4.24,6.23-15.53,12-31.25,18-46.86,2.66,17.19,3.69,40.89,18.61,52.89,13.09,10.53,31.07-.13,40.11-11,3.6,6.49,10,12.85,17.68,13.58,9.74.93,21-5.5,28.32-11.58,2.73,6,8,12.19,15,12.89,4.33.44,9-.93,13-2.24,2.51-.81,6.9-3.69,9.49-3.72,1.88,0,.83-.39,2.25,1.56,1.88,2.6,3.33,5.6,5.1,8.3,5.28,8,11.27,16.3,19,22.13a77.73,77.73,0,0,0,28.89,13c19.77,4.27,42.58.26,59.73-10.75,19.77-12.7,29.8-33,30.16-56.36C376.14,138.32,365.74,122,351.81,108.69Z"/><path class="cls-1" d="M144.9,164.67h0v0Z"/><path class="cls-2" d="M335.66,9.57c-21.21-14.5-40.71-3-46.28.63s-12.86,12.23-12.86,12.23c-.89.74-1.11,5.21,1.68,4.14A51.28,51.28,0,0,0,292,19.79c6.79-4.72,18.86-4.5,23.5-2.58s21.15,8.24,19.36,40.92c-.59,35.65-61,44.78-61.93,42.3-1.37-30,2.18-94.14,2-96s-1.75-4.82-4.36-.36c-4.7,4.79-12.07,72.57-12.07,72.57s-1,4.57-7,4.93S241,87.64,241,92.57s2.86,7.36,6.21,9.14,10.43,3.43,10.43,3.43,1.14,20.72,2.07,37.57,3.86,26,7,33.29,9,17.57,17.43,18.71,8.57-1.92,7.86-6.28-6.21-14.36-8.14-19.43-11.08-61.4-9.63-61.95c0,0,20.56-4.12,40.63-9.91s35.85-25.28,39-37.71S356.88,24.07,335.66,9.57ZM257.41,99.36s-9.28-.65-10-6,6-7,10-8Z"/><path d="M662.38,160.46c-8.48,9-22.67,12.87-34.74,11.95-6.9-.53-15.78-2.95-20.43-8.41a17.16,17.16,0,0,1-3.52-7.28c-.2-.84-1.2-4.66-.52-5.5,1.17-1.44,9.28-.93,11.36-1.18,8.75-1,16.18-3.46,23.27-8.84,5.93-4.49,10.07-9.29,10.38-17s-2-15.69-9.23-19.24c-10.29-5-24.33-2-33.94,3a43.28,43.28,0,0,0-22.61,31c-3.42,18.77,5.24,37.68,23.94,44.32,15.09,5.35,32.9,1.63,46-7a55.22,55.22,0,0,0,11-9.36C665.26,164.89,666.65,157.56,662.38,160.46ZM602,133.29c0-7.46,6.47-16.37,13-19.63,3.37-1.67,8.89-2.31,11.61.88s3,8.66,2.16,12.74c-2,9.16-10.64,15.75-19.67,16.67-1.33.14-6.33,1-7.15-.07-.33-.41,0-2.57,0-3.08Z"/><path d="M466.73,159.18c-3,5.59-8.55,8.06-14.2,10.16a47.12,47.12,0,0,1-19.33,3.13c-7.23-.39-16.54-2.76-21.41-8.47a17,17,0,0,1-3.45-6.92c-.25-1-1.29-4.7-.6-5.73,1-1.54,9.24-1,11.36-1.31,9-1.06,16.53-3.61,23.73-9.19,5.74-4.45,9.62-9.14,9.92-16.7.33-8.1-2.24-16.24-10.08-19.63-10.68-4.62-24.67-1.37-34.33,4a43.2,43.2,0,0,0-21.48,31c-1.28,7.92-1.08,16.25,2.34,23.58a38.33,38.33,0,0,0,23.7,20.79c15.59,4.6,33.33.19,46.39-9,3.1-2.18,7.86-5.26,9.79-8.67.36-.63.76-.75.79-1.34C469.94,163.49,467.44,160.46,466.73,159.18Zm-60.17-25.89c0-7.46,6.46-16.37,13-19.63,3.37-1.67,8.9-2.31,11.61.88s3,8.66,2.16,12.74c-2,9.16-10.64,15.75-19.67,16.67-1.33.14-6.33,1-7.14-.07-.34-.41,0-2.57,0-3.08Z"/><path d="M528.56,146c-2.07,10.17-7.57,25.33-19.46,26.86-21.27,2.73-25.55-22.49-30.66-37.62-.94-2.8-2-3.49-.41-5.49,2.11-2.61,4.88-4.85,7.13-7.34a151.41,151.41,0,0,0,10.66-13.17C509.94,89.59,518.61,64.21,519,40c.17-9.38-1.16-19.19-5.85-27.46-3.87-6.8-9.93-13-18.25-12.46-9.84.6-15.46,6.28-21.32,13.48a74.79,74.79,0,0,0-12.46,22.07c-8.19,22.6-9.34,46.58-7.5,70.35,1.61,20.75,5.5,41.19,15.56,59.66,3.58,6.56,7.18,12.83,14.18,16.24a31.89,31.89,0,0,0,29.8-1.11c4.9-2.82,9.79-6.83,12.6-11.83,1.83-3.24,3.4-6.65,5-10,1.1-2.25.74-2.67,0-5.15ZM473.38,86a179.39,179.39,0,0,1,5.49-46.18c2.16-8.43,5.13-21.51,14.07-25.5,8.25-3.69,10.85,11.23,11.5,16.44.75,6.09.34,12.41.12,18.51a121.7,121.7,0,0,1-3.1,25.08,134.08,134.08,0,0,1-7.88,23.58c-3.27,7.13-8.69,13.36-13.7,19.33-.78.94-3.76,5.41-5.36,4.75-1.07-.44-.95-4.36-1-5.13C472.91,106.63,473.4,96.26,473.38,86Z"/><path d="M595.5,146c-2.06,10.17-7.56,25.33-19.45,26.86-21.27,2.73-25.55-22.49-30.66-37.62-.94-2.8-2-3.49-.41-5.49,2.11-2.61,4.88-4.85,7.13-7.34a151.41,151.41,0,0,0,10.66-13.17C576.89,89.59,585.56,64.21,586,40c.17-9.38-1.16-19.19-5.85-27.46-3.87-6.8-9.93-13-18.25-12.46-9.84.6-15.46,6.28-21.32,13.48a74.79,74.79,0,0,0-12.46,22.07c-8.19,22.6-9.34,46.58-7.5,70.35,1.61,20.75,5.5,41.19,15.56,59.66,3.58,6.56,7.18,12.83,14.18,16.24a31.89,31.89,0,0,0,29.8-1.11c4.9-2.82,9.79-6.83,12.6-11.83,1.83-3.24,3.4-6.65,5-10,1.1-2.25.74-2.67,0-5.15ZM540.33,86a179.39,179.39,0,0,1,5.49-46.18c2.16-8.43,5.13-21.51,14.07-25.5,8.25-3.69,10.85,11.23,11.5,16.44.75,6.09.34,12.41.12,18.51a121.7,121.7,0,0,1-3.1,25.08,134.08,134.08,0,0,1-7.88,23.58c-3.27,7.13-8.69,13.36-13.7,19.33-.78.94-3.76,5.41-5.36,4.75-1.07-.44-1-4.36-1-5.13C539.85,106.63,540.35,96.26,540.33,86Z"/></g></g></svg>